<svg width="43" height="43" viewBox="0 0 43 43" fill="none" xmlns="http://www.w3.org/2000/svg">
<path d="M10.7555 21.5H25.5368L19.7139 15.6771L20.9035 14.3333L28.966 22.3958L20.9035 30.4583L19.7139 29.1146L25.5368 23.2917H10.7555V21.5ZM37.6305 22.3958C37.6305 24.631 37.1903 26.8444 36.3349 28.9094C35.4795 30.9745 34.2258 32.8509 32.6452 34.4314C31.0647 36.0119 29.1884 37.2657 27.1233 38.121C25.0582 38.9764 22.8449 39.4167 20.6097 39.4167C18.3745 39.4167 16.1612 38.9764 14.0961 38.121C12.031 37.2657 10.1547 36.0119 8.57415 34.4314C6.99362 32.8509 5.73988 30.9745 4.8845 28.9094C4.02912 26.8444 3.58887 24.631 3.58887 22.3958C3.58887 17.8816 5.38213 13.5523 8.57415 10.3603C11.7662 7.16826 16.0955 5.375 20.6097 5.375C25.1239 5.375 29.4532 7.16826 32.6452 10.3603C35.8373 13.5523 37.6305 17.8816 37.6305 22.3958ZM35.8389 22.3958C35.8389 18.3568 34.2344 14.4832 31.3783 11.6272C28.5223 8.77116 24.6487 7.16667 20.6097 7.16667C16.5707 7.16667 12.6971 8.77116 9.84105 11.6272C6.98503 14.4832 5.38053 18.3568 5.38053 22.3958C5.38053 26.4349 6.98503 30.3085 9.84105 33.1645C12.6971 36.0205 16.5707 37.625 20.6097 37.625C24.6487 37.625 28.5223 36.0205 31.3783 33.1645C34.2344 30.3085 35.8389 26.4349 35.8389 22.3958Z" fill="#A0FEB5"/>
</svg>
