<svg width="20" height="20" viewBox="0 0 20 20" fill="none" xmlns="http://www.w3.org/2000/svg">
<g opacity="0.6" clip-path="url(#clip0_280_3629)">
<path fill-rule="evenodd" clip-rule="evenodd" d="M15.9586 2.72484C14.2044 0.968628 11.8716 0.00102997 9.38625 0C4.26502 0 0.0970841 4.16782 0.0950241 9.29043C0.0943375 10.928 0.522118 12.5265 1.33522 13.9355L0.0170898 18.75L4.94251 17.458C6.29967 18.1983 7.82757 18.5884 9.38248 18.5889H9.38637C14.507 18.5889 18.6754 14.4207 18.6774 9.29787C18.6784 6.81519 17.7129 4.48093 15.9586 2.72484ZM9.38625 17.0198H9.38305C7.9974 17.0192 6.63841 16.6468 5.45258 15.9433L5.17071 15.7759L2.24789 16.5427L3.02803 13.693L2.84435 13.4008C2.0713 12.1712 1.66309 10.7501 1.66378 9.291C1.66538 5.03323 5.12974 1.56921 9.38934 1.56921C11.452 1.5699 13.391 2.37419 14.849 3.83389C16.307 5.29358 17.1094 7.23381 17.1087 9.29729C17.1069 13.5554 13.6428 17.0198 9.38625 17.0198ZM13.6222 11.236C13.3901 11.1198 12.2486 10.5583 12.0358 10.4807C11.8232 10.4033 11.6682 10.3647 11.5136 10.597C11.3588 10.8293 10.9139 11.3523 10.7784 11.5071C10.6429 11.6621 10.5077 11.6816 10.2755 11.5653C10.0433 11.4491 9.29527 11.2039 8.40847 10.413C7.71839 9.7974 7.2525 9.03717 7.117 8.80486C6.98174 8.57231 7.11586 8.45879 7.21886 8.33107C7.47017 8.01899 7.72182 7.6918 7.79919 7.53696C7.87666 7.38201 7.83787 7.2464 7.77973 7.13024C7.72182 7.01408 7.25754 5.87139 7.06413 5.40642C6.87553 4.95392 6.6843 5.01503 6.54171 5.00793C6.40644 5.00118 6.2516 4.99981 6.09676 4.99981C5.94204 4.99981 5.6905 5.05783 5.47764 5.29037C5.26489 5.5228 4.66522 6.08437 4.66522 7.22706C4.66522 8.36975 5.49709 9.47365 5.61314 9.6286C5.72918 9.78355 7.25021 12.1284 9.57897 13.1339C10.1329 13.3733 10.5652 13.516 10.9025 13.623C11.4587 13.7997 11.9646 13.7748 12.3647 13.7151C12.8108 13.6483 13.7381 13.1534 13.9317 12.6112C14.1251 12.0688 14.1251 11.6041 14.067 11.5071C14.0091 11.4103 13.8543 11.3523 13.6222 11.236Z" fill="#D9E6CA"/>
</g>
<defs>
<clipPath id="clip0_280_3629">
<rect width="20" height="20" fill="white"/>
</clipPath>
</defs>
</svg>
