<svg width="35" height="35" viewBox="0 0 35 35" fill="none" xmlns="http://www.w3.org/2000/svg">
<path d="M23.3333 26.25C24.1068 26.25 24.8487 26.5573 25.3956 27.1043C25.9426 27.6513 26.2499 28.3931 26.2499 29.1667C26.2499 29.9402 25.9426 30.6821 25.3956 31.2291C24.8487 31.776 24.1068 32.0833 23.3333 32.0833C22.5597 32.0833 21.8178 31.776 21.2709 31.2291C20.7239 30.6821 20.4166 29.9402 20.4166 29.1667C20.4166 28.3931 20.7239 27.6513 21.2709 27.1043C21.8178 26.5573 22.5597 26.25 23.3333 26.25ZM23.3333 27.7083C22.9465 27.7083 22.5755 27.862 22.3021 28.1355C22.0286 28.409 21.8749 28.7799 21.8749 29.1667C21.8749 29.5534 22.0286 29.9244 22.3021 30.1979C22.5755 30.4714 22.9465 30.625 23.3333 30.625C23.72 30.625 24.091 30.4714 24.3644 30.1979C24.6379 29.9244 24.7916 29.5534 24.7916 29.1667C24.7916 28.7799 24.6379 28.409 24.3644 28.1355C24.091 27.862 23.72 27.7083 23.3333 27.7083ZM10.2083 26.25C10.9818 26.25 11.7237 26.5573 12.2706 27.1043C12.8176 27.6513 13.1249 28.3931 13.1249 29.1667C13.1249 29.9402 12.8176 30.6821 12.2706 31.2291C11.7237 31.776 10.9818 32.0833 10.2083 32.0833C9.4347 32.0833 8.69284 31.776 8.14586 31.2291C7.59888 30.6821 7.29158 29.9402 7.29158 29.1667C7.29158 28.3931 7.59888 27.6513 8.14586 27.1043C8.69284 26.5573 9.4347 26.25 10.2083 26.25ZM10.2083 27.7083C9.82148 27.7083 9.45054 27.862 9.17705 28.1355C8.90356 28.409 8.74992 28.7799 8.74992 29.1667C8.74992 29.5534 8.90356 29.9244 9.17705 30.1979C9.45054 30.4714 9.82148 30.625 10.2083 30.625C10.595 30.625 10.966 30.4714 11.2394 30.1979C11.5129 29.9244 11.6666 29.5534 11.6666 29.1667C11.6666 28.7799 11.5129 28.409 11.2394 28.1355C10.966 27.862 10.595 27.7083 10.2083 27.7083ZM26.2499 8.75H6.23138L9.94575 17.5H21.8749C22.1017 17.5003 22.3254 17.4475 22.528 17.3457C22.7306 17.2438 22.9065 17.0959 23.0416 16.9138L27.4166 11.0804H27.418C27.5798 10.8636 27.678 10.6062 27.7019 10.3368C27.7257 10.0674 27.6741 9.79663 27.5529 9.55484C27.4317 9.31306 27.2457 9.10974 27.0156 8.96761C26.7855 8.82548 26.5204 8.75013 26.2499 8.75ZM21.8749 18.9583H10.0128L8.89575 21.2333L8.74992 21.875C8.74992 22.2618 8.90356 22.6327 9.17705 22.9062C9.45054 23.1797 9.82148 23.3333 10.2083 23.3333H26.2499V24.7917H10.2083C9.70041 24.7919 9.20131 24.6596 8.76032 24.4077C8.31934 24.1558 7.95176 23.7932 7.69395 23.3557C7.43614 22.9181 7.29704 22.4209 7.29042 21.9131C7.28379 21.4053 7.40987 20.9045 7.65617 20.4604L8.70617 18.3108L3.4095 5.83333H1.45825V4.375H4.37492L5.61304 7.29167H26.2499C26.801 7.29172 27.3408 7.44789 27.8067 7.74208C28.2727 8.03627 28.6458 8.45645 28.8828 8.95395C29.1198 9.45145 29.211 10.0059 29.1459 10.5531C29.0807 11.1003 28.8619 11.6179 28.5147 12.0458L24.2651 17.7129C23.9964 18.0976 23.6388 18.4118 23.2227 18.6286C22.8065 18.8454 22.3442 18.9586 21.8749 18.9583Z" fill="white"/>
</svg>
